# xmcd
# 
# Track frame offsets:
#     150
#     18545
#     31025
#     50567
#     72302
#     89425
#     108150
#     127700
#     147380
#     173357
# 
# Disc length: 2759
# 
# Revision: 3
# Processed by: cddbd v1.5.2PL0 Copyright (c) Steve Scherf et al.
# Submitted via: BonkEnc v1.0
# 
DISCID=790ac50a
DTITLE=Leahy - In All Things
DYEAR=2004
DGENRE=Celtic
TTITLE0=Chasing Rain (Chasing Rain - Otis)
TTITLE1=Little Ditty (Finbar Dwyer's - Gypsy Reel)
TTITLE2=HighPlaces
TTITLE3=Wedding Day Jig
TTITLE4=Coyote Way
TTITLE5=Clog Medley (Accordion Clog - The Straight Jig - Jean Carignan's Clog)
TTITLE6=Pointe Au Pic Medley (Jim Morrison's Reel - Pointe Au Pic - June 24)
TTITLE7=Runaway
TTITLE8=I Want You to Know
TTITLE9=Gzowski Medley (Our Highland Queen - Little John's Hand - Spey In Spate Reel - The Fourth Bridge Reel)
EXTD=http://www.leahymusic.com
EXTT0=
EXTT1=
EXTT2=
EXTT3=
EXTT4=
EXTT5=
EXTT6=
EXTT7=
EXTT8=
EXTT9=
PLAYORDER=
